<?xml version="1.0" encoding="utf-8"?>
<!-- Generator: Adobe Illustrator 23.0.1, SVG Export Plug-In . SVG Version: 6.00 Build 0)  -->
<svg version="1.1" id="图层_1" xmlns="http://www.w3.org/2000/svg" xmlns:xlink="http://www.w3.org/1999/xlink" x="0px" y="0px"
	 viewBox="0 0 851.8 175" style="enable-background:new 0 0 851.8 175;" xml:space="preserve">
<style type="text/css">
	.st0{clip-path:url(#SVGID_2_);}
	.st1{fill:#158CBA;}
	.st2{fill:#FFFFFF;}
	.st3{font-family:'Calibri-Bold';}
	.st4{font-size:114.95px;}
	.st5{font-size:74.75px;}
	.st6{clip-path:url(#SVGID_4_);}
</style>
<g>
	<defs>
		<rect id="SVGID_1_" y="-292.5" width="851.8" height="676.6"/>
	</defs>
	<clipPath id="SVGID_2_">
		<use xlink:href="#SVGID_1_"  style="overflow:visible;"/>
	</clipPath>
	<g class="st0">
		<rect y="-292.5" class="st1" width="851.8" height="676.6"/>
		<text transform="matrix(1 0 0 1 38.1 165.7603)" class="st2 st3 st4">v</text>
		<text transform="matrix(1 0 0 1 92.5 165.7603)" class="st2 st3 st4">i</text>
		<text transform="matrix(1 0 0 1 120.75 165.7603)" class="st2 st3 st4">r</text>
		<text transform="matrix(1 0 0 1 161.65 165.7603)" class="st2 st3 st4">u</text>
		<text transform="matrix(1 0 0 1 223.35 165.7603)" class="st2 st3 st4">s</text>
		<text transform="matrix(1 0 0 1 269.25 137.0103)" class="st2 st3 st5">H</text>
		<text transform="matrix(1 0 0 1 316.4 137.0103)" class="st2 st3 st5">u</text>
		<text transform="matrix(1 0 0 1 356.5 137.0103)" class="st2 st3 st5">b</text>
		<g>
			<defs>
				<rect id="SVGID_3_" x="37.6" y="-3.3" width="140.3" height="121.6"/>
			</defs>
			<clipPath id="SVGID_4_">
				<use xlink:href="#SVGID_3_"  style="overflow:visible;"/>
			</clipPath>
			<g class="st6">
				
					<image style="overflow:visible;enable-background:new    ;" width="188" height="163" xlink:href="38B89525.png"  transform="matrix(0.7454 0 0 0.7454 37.6175 -3.2898)">
				</image>
			</g>
		</g>
	</g>
</g>
</svg>
