<?xml version="1.0" encoding="utf-8"?>
<!-- Generator: Adobe Illustrator 23.0.1, SVG Export Plug-In . SVG Version: 6.00 Build 0)  -->
<svg version="1.1" id="图层_1" xmlns="http://www.w3.org/2000/svg" xmlns:xlink="http://www.w3.org/1999/xlink" x="0px" y="0px"
	 viewBox="0 0 851.8 173" style="enable-background:new 0 0 851.8 173;" xml:space="preserve">
<style type="text/css">
	.st0{clip-path:url(#SVGID_2_);fill-rule:evenodd;clip-rule:evenodd;fill:#158CBA;}
	.st1{clip-path:url(#SVGID_2_);}
	.st2{fill:#FFFFFF;}
	.st3{font-family:'Calibri-Bold';}
	.st4{font-size:114.95px;}
	.st5{font-size:74.75px;}
</style>
<g>
	<defs>
		<rect id="SVGID_1_" y="-292.6" width="851.8" height="676.6"/>
	</defs>
	<clipPath id="SVGID_2_">
		<use xlink:href="#SVGID_1_"  style="overflow:visible;"/>
	</clipPath>
	<rect y="-292.6" class="st0" width="851.8" height="676.6"/>
	<g class="st1">
		<text transform="matrix(1 0 0 1 38.1001 165.65)" class="st2 st3 st4">v</text>
	</g>
	<g class="st1">
		<text transform="matrix(1 0 0 1 92.5 165.65)" class="st2 st3 st4">i</text>
	</g>
	<g class="st1">
		<text transform="matrix(1 0 0 1 120.75 165.65)" class="st2 st3 st4">r</text>
	</g>
	<g class="st1">
		<text transform="matrix(1 0 0 1 161.6499 165.65)" class="st2 st3 st4">u</text>
	</g>
	<g class="st1">
		<text transform="matrix(1 0 0 1 223.3501 165.65)" class="st2 st3 st4">s</text>
	</g>
	<g class="st1">
		<text transform="matrix(1 0 0 1 269.25 136.9)" class="st2 st3 st5">H</text>
	</g>
	<g class="st1">
		<text transform="matrix(1 0 0 1 316.3999 136.9)" class="st2 st3 st5">u</text>
	</g>
	<g class="st1">
		<text transform="matrix(1 0 0 1 356.5 136.9)" class="st2 st3 st5">b</text>
	</g>
	<g class="st1">
		<g>
			<defs>
				<rect id="SVGID_3_" x="37.6" y="-3.4" width="140.3" height="121.6"/>
			</defs>
			<clipPath id="SVGID_4_">
				<use xlink:href="#SVGID_3_"  style="overflow:visible;"/>
			</clipPath>
			<g style="clip-path:url(#SVGID_4_);">
				
					<image style="overflow:visible;" width="187" height="162" xlink:href="38B89526.png"  transform="matrix(0.7502 0 0 0.7504 37.56 -3.4)">
				</image>
			</g>
		</g>
	</g>
</g>
</svg>
